<svg width="102" height="13" viewBox="0 0 102 13" fill="none" xmlns="http://www.w3.org/2000/svg">
<path d="M5.52 0.704H6.88L8.384 4.656L9.904 0.704H11.264L9.296 5.648L11.248 10.336L15.088 0.639999H16.656L11.904 12H10.656L8.4 6.64L6.128 12H4.88L0.144 0.639999H1.696L5.552 10.336L7.488 5.648L5.52 0.704ZM23.9274 12.08C23.1274 12.08 22.402 11.92 21.7514 11.6C21.1007 11.28 20.5354 10.848 20.0554 10.304C19.586 9.74933 19.2234 9.13067 18.9674 8.448C18.7114 7.75467 18.5834 7.04533 18.5834 6.32C18.5834 5.56267 18.7167 4.84267 18.9834 4.16C19.2607 3.46667 19.6394 2.85333 20.1194 2.32C20.61 1.776 21.1807 1.34933 21.8314 1.04C22.482 0.719999 23.1914 0.559999 23.9594 0.559999C24.7594 0.559999 25.4847 0.725333 26.1354 1.056C26.786 1.38667 27.346 1.82933 27.8154 2.384C28.2847 2.93867 28.6474 3.55733 28.9034 4.24C29.1594 4.92267 29.2874 5.62133 29.2874 6.336C29.2874 7.09333 29.154 7.81867 28.8874 8.512C28.6207 9.19467 28.242 9.808 27.7514 10.352C27.2714 10.8853 26.706 11.3067 26.0554 11.616C25.4047 11.9253 24.6954 12.08 23.9274 12.08ZM20.0394 6.32C20.0394 6.896 20.13 7.456 20.3114 8C20.5034 8.53333 20.77 9.008 21.1114 9.424C21.4527 9.84 21.8634 10.1707 22.3434 10.416C22.8234 10.6613 23.3567 10.784 23.9434 10.784C24.5514 10.784 25.0954 10.656 25.5754 10.4C26.0554 10.144 26.4607 9.80267 26.7914 9.376C27.1327 8.94933 27.3887 8.46933 27.5594 7.936C27.7407 7.40267 27.8314 6.864 27.8314 6.32C27.8314 5.744 27.7354 5.18933 27.5434 4.656C27.362 4.12267 27.0954 3.648 26.7434 3.232C26.402 2.80533 25.9914 2.47467 25.5114 2.24C25.042 1.99467 24.5194 1.872 23.9434 1.872C23.3354 1.872 22.7914 2 22.3114 2.256C21.8314 2.50133 21.4207 2.83733 21.0794 3.264C20.7487 3.69067 20.4927 4.17067 20.3114 4.704C20.13 5.22667 20.0394 5.76533 20.0394 6.32ZM42.7121 12V3.328L38.9681 10H38.0881L34.3281 3.328V12H32.8881V0.639999H34.4081L38.5201 8.016L42.6481 0.639999H44.1521V12H42.7121ZM51.9285 0.639999H53.1445L57.7845 12H56.2485L54.9045 8.672H50.1365L48.8085 12H47.2725L51.9285 0.639999ZM54.5845 7.552L52.5365 2.304L50.4245 7.552H54.5845ZM60.0526 10.88L67.3806 1.92H60.1966V0.639999H69.0606V1.76L61.8606 10.72H69.0606V12H60.0526V10.88ZM72.5944 12V0.639999H74.0344V12H72.5944ZM79.7906 3.296V12H78.3506V0.639999H79.5666L86.5106 9.52V0.655999H87.9506V12H86.6386L79.7906 3.296ZM96.8231 12.08C96.0765 12.08 95.3778 11.92 94.7271 11.6C94.0871 11.2693 93.5271 10.832 93.0471 10.288C92.5671 9.73333 92.1938 9.11467 91.9271 8.432C91.6605 7.73867 91.5271 7.024 91.5271 6.288C91.5271 5.52 91.6605 4.79467 91.9271 4.112C92.1938 3.41867 92.5618 2.80533 93.0311 2.272C93.5111 1.73867 94.0711 1.32267 94.7111 1.024C95.3618 0.714666 96.0658 0.559999 96.8231 0.559999C97.9218 0.559999 98.8285 0.789333 99.5431 1.248C100.258 1.70667 100.796 2.304 101.159 3.04L100.055 3.808C99.7245 3.14667 99.2711 2.656 98.6951 2.336C98.1191 2.016 97.4845 1.856 96.7911 1.856C96.2151 1.856 95.6925 1.97867 95.2231 2.224C94.7538 2.46933 94.3485 2.80533 94.0071 3.232C93.6765 3.648 93.4205 4.12267 93.2391 4.656C93.0685 5.18933 92.9831 5.744 92.9831 6.32C92.9831 7.13067 93.1538 7.87733 93.4951 8.56C93.8471 9.232 94.3218 9.77067 94.9191 10.176C95.5165 10.5813 96.1885 10.784 96.9351 10.784C97.5431 10.784 98.1245 10.64 98.6791 10.352C99.2445 10.0533 99.7778 9.6 100.279 8.992V7.424H97.8311V6.336H101.495V12H100.279V10.464C99.2978 11.5413 98.1458 12.08 96.8231 12.08Z" fill="black"/>
</svg>
